<mxfile host="app.diagrams.net" modified="2023-07-10T13:13:47.542Z" agent="Mozilla/5.0 (X11; Linux x86_64; rv:109.0) Gecko/20100101 Firefox/110.0" etag="DWo9NnZHri8vFXaflQBf" version="21.5.2" type="device">
  <diagram name="Page-1" id="qexW0GoM9GMoykkjlQxq">
    <mxGraphModel dx="1402" dy="730" grid="1" gridSize="10" guides="1" tooltips="1" connect="1" arrows="1" fold="1" page="1" pageScale="1" pageWidth="850" pageHeight="1100" math="0" shadow="0">
      <root>
        <mxCell id="0" />
        <mxCell id="1" parent="0" />
        <mxCell id="PtrqWuawoQSoD1VGYV8C-1" value="A" style="whiteSpace=wrap;html=1;aspect=fixed;fillColor=#647687;strokeColor=#314354;fontColor=#ffffff;" parent="1" vertex="1">
          <mxGeometry x="90" y="170" width="80" height="80" as="geometry" />
        </mxCell>
        <mxCell id="PtrqWuawoQSoD1VGYV8C-2" value="B" style="whiteSpace=wrap;html=1;aspect=fixed;fillColor=#bac8d3;strokeColor=#23445d;" parent="1" vertex="1">
          <mxGeometry x="260" y="170" width="80" height="80" as="geometry" />
        </mxCell>
        <mxCell id="PtrqWuawoQSoD1VGYV8C-3" value="D" style="whiteSpace=wrap;html=1;aspect=fixed;fillColor=#bac8d3;strokeColor=#23445d;" parent="1" vertex="1">
          <mxGeometry x="90" y="340" width="80" height="80" as="geometry" />
        </mxCell>
        <mxCell id="PtrqWuawoQSoD1VGYV8C-4" value="C" style="whiteSpace=wrap;html=1;aspect=fixed;fillColor=#bac8d3;strokeColor=#23445d;" parent="1" vertex="1">
          <mxGeometry x="260" y="340" width="80" height="80" as="geometry" />
        </mxCell>
        <mxCell id="PtrqWuawoQSoD1VGYV8C-5" value="timer = delay = Δ" style="text;html=1;strokeColor=none;fillColor=none;align=center;verticalAlign=middle;whiteSpace=wrap;rounded=0;" parent="1" vertex="1">
          <mxGeometry x="95" y="120" width="110" height="30" as="geometry" />
        </mxCell>
        <mxCell id="PtrqWuawoQSoD1VGYV8C-6" value="" style="endArrow=classic;html=1;rounded=0;exitX=1;exitY=0.5;exitDx=0;exitDy=0;entryX=0;entryY=0.5;entryDx=0;entryDy=0;" parent="1" source="PtrqWuawoQSoD1VGYV8C-1" target="PtrqWuawoQSoD1VGYV8C-2" edge="1">
          <mxGeometry width="50" height="50" relative="1" as="geometry">
            <mxPoint x="330" y="360" as="sourcePoint" />
            <mxPoint x="380" y="310" as="targetPoint" />
          </mxGeometry>
        </mxCell>
        <mxCell id="PtrqWuawoQSoD1VGYV8C-11" value="1" style="edgeLabel;html=1;align=center;verticalAlign=middle;resizable=0;points=[];" parent="PtrqWuawoQSoD1VGYV8C-6" vertex="1" connectable="0">
          <mxGeometry x="-0.0111" y="4" relative="1" as="geometry">
            <mxPoint as="offset" />
          </mxGeometry>
        </mxCell>
        <mxCell id="PtrqWuawoQSoD1VGYV8C-7" value="" style="endArrow=classic;html=1;rounded=0;exitX=1;exitY=1;exitDx=0;exitDy=0;entryX=0;entryY=0;entryDx=0;entryDy=0;" parent="1" source="PtrqWuawoQSoD1VGYV8C-1" target="PtrqWuawoQSoD1VGYV8C-4" edge="1">
          <mxGeometry width="50" height="50" relative="1" as="geometry">
            <mxPoint x="330" y="360" as="sourcePoint" />
            <mxPoint x="380" y="310" as="targetPoint" />
          </mxGeometry>
        </mxCell>
        <mxCell id="PtrqWuawoQSoD1VGYV8C-10" value="1" style="edgeLabel;html=1;align=center;verticalAlign=middle;resizable=0;points=[];" parent="PtrqWuawoQSoD1VGYV8C-7" vertex="1" connectable="0">
          <mxGeometry x="-0.0031" y="-1" relative="1" as="geometry">
            <mxPoint as="offset" />
          </mxGeometry>
        </mxCell>
        <mxCell id="PtrqWuawoQSoD1VGYV8C-8" value="" style="endArrow=classic;html=1;rounded=0;exitX=0.5;exitY=1;exitDx=0;exitDy=0;entryX=0.5;entryY=0;entryDx=0;entryDy=0;" parent="1" source="PtrqWuawoQSoD1VGYV8C-1" target="PtrqWuawoQSoD1VGYV8C-3" edge="1">
          <mxGeometry width="50" height="50" relative="1" as="geometry">
            <mxPoint x="330" y="360" as="sourcePoint" />
            <mxPoint x="380" y="310" as="targetPoint" />
          </mxGeometry>
        </mxCell>
        <mxCell id="PtrqWuawoQSoD1VGYV8C-12" value="1" style="edgeLabel;html=1;align=center;verticalAlign=middle;resizable=0;points=[];" parent="PtrqWuawoQSoD1VGYV8C-8" vertex="1" connectable="0">
          <mxGeometry x="0.0063" y="-1" relative="1" as="geometry">
            <mxPoint as="offset" />
          </mxGeometry>
        </mxCell>
        <mxCell id="PtrqWuawoQSoD1VGYV8C-9" value="&lt;div align=&quot;left&quot;&gt;&lt;ol&gt;&lt;li&gt;Send HeartbeatRequest message&lt;/li&gt;&lt;li&gt;Send HeartbeatReply message&lt;/li&gt;&lt;li&gt;Deliver HeartbeatReply messages, add processes to the alive list&lt;/li&gt;&lt;/ol&gt;&lt;/div&gt;" style="text;html=1;strokeColor=none;fillColor=none;align=left;verticalAlign=middle;whiteSpace=wrap;rounded=0;" parent="1" vertex="1">
          <mxGeometry x="40" y="40" width="420" height="110" as="geometry" />
        </mxCell>
        <mxCell id="PtrqWuawoQSoD1VGYV8C-13" value="" style="endArrow=classic;html=1;rounded=0;exitX=0.25;exitY=0;exitDx=0;exitDy=0;entryX=1;entryY=0.75;entryDx=0;entryDy=0;" parent="1" source="PtrqWuawoQSoD1VGYV8C-4" target="PtrqWuawoQSoD1VGYV8C-1" edge="1">
          <mxGeometry width="50" height="50" relative="1" as="geometry">
            <mxPoint x="290" y="510" as="sourcePoint" />
            <mxPoint x="340" y="460" as="targetPoint" />
          </mxGeometry>
        </mxCell>
        <mxCell id="PtrqWuawoQSoD1VGYV8C-14" value="2" style="edgeLabel;html=1;align=center;verticalAlign=middle;resizable=0;points=[];" parent="PtrqWuawoQSoD1VGYV8C-13" vertex="1" connectable="0">
          <mxGeometry x="0.0082" y="-1" relative="1" as="geometry">
            <mxPoint as="offset" />
          </mxGeometry>
        </mxCell>
        <mxCell id="PtrqWuawoQSoD1VGYV8C-15" value="" style="endArrow=classic;html=1;rounded=0;exitX=0;exitY=0.75;exitDx=0;exitDy=0;entryX=1;entryY=0.75;entryDx=0;entryDy=0;" parent="1" source="PtrqWuawoQSoD1VGYV8C-2" target="PtrqWuawoQSoD1VGYV8C-1" edge="1">
          <mxGeometry width="50" height="50" relative="1" as="geometry">
            <mxPoint x="560" y="540" as="sourcePoint" />
            <mxPoint x="180" y="200" as="targetPoint" />
          </mxGeometry>
        </mxCell>
        <mxCell id="PtrqWuawoQSoD1VGYV8C-16" value="2" style="edgeLabel;html=1;align=center;verticalAlign=middle;resizable=0;points=[];" parent="PtrqWuawoQSoD1VGYV8C-15" vertex="1" connectable="0">
          <mxGeometry x="0.0082" y="-1" relative="1" as="geometry">
            <mxPoint as="offset" />
          </mxGeometry>
        </mxCell>
        <mxCell id="PtrqWuawoQSoD1VGYV8C-17" value="" style="endArrow=classic;html=1;rounded=0;exitX=0.75;exitY=0;exitDx=0;exitDy=0;entryX=0.75;entryY=1;entryDx=0;entryDy=0;" parent="1" source="PtrqWuawoQSoD1VGYV8C-3" target="PtrqWuawoQSoD1VGYV8C-1" edge="1">
          <mxGeometry width="50" height="50" relative="1" as="geometry">
            <mxPoint x="570" y="550" as="sourcePoint" />
            <mxPoint x="190" y="210" as="targetPoint" />
          </mxGeometry>
        </mxCell>
        <mxCell id="PtrqWuawoQSoD1VGYV8C-18" value="2" style="edgeLabel;html=1;align=center;verticalAlign=middle;resizable=0;points=[];" parent="PtrqWuawoQSoD1VGYV8C-17" vertex="1" connectable="0">
          <mxGeometry x="0.0082" y="-1" relative="1" as="geometry">
            <mxPoint as="offset" />
          </mxGeometry>
        </mxCell>
        <mxCell id="PtrqWuawoQSoD1VGYV8C-19" value="" style="curved=1;endArrow=classic;html=1;rounded=0;entryX=0;entryY=0.5;entryDx=0;entryDy=0;exitX=-0.037;exitY=0.875;exitDx=0;exitDy=0;exitPerimeter=0;" parent="1" source="PtrqWuawoQSoD1VGYV8C-1" target="PtrqWuawoQSoD1VGYV8C-1" edge="1">
          <mxGeometry width="50" height="50" relative="1" as="geometry">
            <mxPoint x="290" y="420" as="sourcePoint" />
            <mxPoint x="340" y="370" as="targetPoint" />
            <Array as="points">
              <mxPoint x="20" y="170" />
              <mxPoint x="40" y="130" />
              <mxPoint x="80" y="130" />
            </Array>
          </mxGeometry>
        </mxCell>
        <mxCell id="PtrqWuawoQSoD1VGYV8C-20" value="3." style="edgeLabel;html=1;align=center;verticalAlign=middle;resizable=0;points=[];" parent="PtrqWuawoQSoD1VGYV8C-19" vertex="1" connectable="0">
          <mxGeometry x="0.0462" y="-1" relative="1" as="geometry">
            <mxPoint as="offset" />
          </mxGeometry>
        </mxCell>
        <mxCell id="PtrqWuawoQSoD1VGYV8C-21" value="A" style="whiteSpace=wrap;html=1;aspect=fixed;fillColor=#647687;strokeColor=#314354;fontColor=#ffffff;" parent="1" vertex="1">
          <mxGeometry x="520" y="168.07" width="80" height="80" as="geometry" />
        </mxCell>
        <mxCell id="PtrqWuawoQSoD1VGYV8C-22" value="B" style="whiteSpace=wrap;html=1;aspect=fixed;fillColor=#bac8d3;strokeColor=#23445d;" parent="1" vertex="1">
          <mxGeometry x="690" y="168.07" width="80" height="80" as="geometry" />
        </mxCell>
        <mxCell id="PtrqWuawoQSoD1VGYV8C-23" value="D" style="whiteSpace=wrap;html=1;aspect=fixed;fillColor=#bac8d3;strokeColor=#23445d;" parent="1" vertex="1">
          <mxGeometry x="520" y="338.07" width="80" height="80" as="geometry" />
        </mxCell>
        <mxCell id="PtrqWuawoQSoD1VGYV8C-24" value="C" style="whiteSpace=wrap;html=1;aspect=fixed;fillColor=#f8cecc;strokeColor=#b85450;" parent="1" vertex="1">
          <mxGeometry x="690" y="338.07" width="80" height="80" as="geometry" />
        </mxCell>
        <mxCell id="PtrqWuawoQSoD1VGYV8C-25" value="timer = delay = Δ" style="text;html=1;strokeColor=none;fillColor=none;align=center;verticalAlign=middle;whiteSpace=wrap;rounded=0;" parent="1" vertex="1">
          <mxGeometry x="505" y="130" width="110" height="30" as="geometry" />
        </mxCell>
        <mxCell id="PtrqWuawoQSoD1VGYV8C-26" value="" style="endArrow=classic;html=1;rounded=0;exitX=1;exitY=0.5;exitDx=0;exitDy=0;entryX=0;entryY=0.5;entryDx=0;entryDy=0;" parent="1" source="PtrqWuawoQSoD1VGYV8C-21" target="PtrqWuawoQSoD1VGYV8C-22" edge="1">
          <mxGeometry width="50" height="50" relative="1" as="geometry">
            <mxPoint x="760" y="358.07" as="sourcePoint" />
            <mxPoint x="810" y="308.07" as="targetPoint" />
          </mxGeometry>
        </mxCell>
        <mxCell id="PtrqWuawoQSoD1VGYV8C-27" value="1" style="edgeLabel;html=1;align=center;verticalAlign=middle;resizable=0;points=[];" parent="PtrqWuawoQSoD1VGYV8C-26" vertex="1" connectable="0">
          <mxGeometry x="-0.0111" y="4" relative="1" as="geometry">
            <mxPoint as="offset" />
          </mxGeometry>
        </mxCell>
        <mxCell id="PtrqWuawoQSoD1VGYV8C-28" value="" style="endArrow=classic;html=1;rounded=0;exitX=1;exitY=1;exitDx=0;exitDy=0;entryX=0;entryY=0;entryDx=0;entryDy=0;" parent="1" source="PtrqWuawoQSoD1VGYV8C-21" target="PtrqWuawoQSoD1VGYV8C-24" edge="1">
          <mxGeometry width="50" height="50" relative="1" as="geometry">
            <mxPoint x="760" y="358.07" as="sourcePoint" />
            <mxPoint x="810" y="308.07" as="targetPoint" />
          </mxGeometry>
        </mxCell>
        <mxCell id="PtrqWuawoQSoD1VGYV8C-29" value="1" style="edgeLabel;html=1;align=center;verticalAlign=middle;resizable=0;points=[];" parent="PtrqWuawoQSoD1VGYV8C-28" vertex="1" connectable="0">
          <mxGeometry x="-0.0031" y="-1" relative="1" as="geometry">
            <mxPoint as="offset" />
          </mxGeometry>
        </mxCell>
        <mxCell id="PtrqWuawoQSoD1VGYV8C-30" value="" style="endArrow=classic;html=1;rounded=0;exitX=0.5;exitY=1;exitDx=0;exitDy=0;entryX=0.5;entryY=0;entryDx=0;entryDy=0;" parent="1" source="PtrqWuawoQSoD1VGYV8C-21" target="PtrqWuawoQSoD1VGYV8C-23" edge="1">
          <mxGeometry width="50" height="50" relative="1" as="geometry">
            <mxPoint x="760" y="358.07" as="sourcePoint" />
            <mxPoint x="810" y="308.07" as="targetPoint" />
          </mxGeometry>
        </mxCell>
        <mxCell id="PtrqWuawoQSoD1VGYV8C-31" value="1" style="edgeLabel;html=1;align=center;verticalAlign=middle;resizable=0;points=[];" parent="PtrqWuawoQSoD1VGYV8C-30" vertex="1" connectable="0">
          <mxGeometry x="0.0063" y="-1" relative="1" as="geometry">
            <mxPoint as="offset" />
          </mxGeometry>
        </mxCell>
        <mxCell id="PtrqWuawoQSoD1VGYV8C-32" value="&lt;div align=&quot;left&quot;&gt;&lt;ol&gt;&lt;li&gt;Send HeartbeatRequest message&lt;/li&gt;&lt;li&gt;Send HeartbeatReply message&lt;/li&gt;&lt;li&gt;Deliver HeartbeatReply messages, add processes to the alive list&lt;/li&gt;&lt;li&gt;Add C to suspected and trigger Suspect event&lt;br&gt;&lt;/li&gt;&lt;/ol&gt;&lt;/div&gt;" style="text;html=1;strokeColor=none;fillColor=none;align=left;verticalAlign=middle;whiteSpace=wrap;rounded=0;" parent="1" vertex="1">
          <mxGeometry x="450" y="50" width="390" height="110" as="geometry" />
        </mxCell>
        <mxCell id="PtrqWuawoQSoD1VGYV8C-35" value="" style="endArrow=classic;html=1;rounded=0;exitX=0;exitY=0.75;exitDx=0;exitDy=0;entryX=1;entryY=0.75;entryDx=0;entryDy=0;" parent="1" source="PtrqWuawoQSoD1VGYV8C-22" target="PtrqWuawoQSoD1VGYV8C-21" edge="1">
          <mxGeometry width="50" height="50" relative="1" as="geometry">
            <mxPoint x="990" y="538.07" as="sourcePoint" />
            <mxPoint x="610" y="198.07" as="targetPoint" />
          </mxGeometry>
        </mxCell>
        <mxCell id="PtrqWuawoQSoD1VGYV8C-36" value="2" style="edgeLabel;html=1;align=center;verticalAlign=middle;resizable=0;points=[];" parent="PtrqWuawoQSoD1VGYV8C-35" vertex="1" connectable="0">
          <mxGeometry x="0.0082" y="-1" relative="1" as="geometry">
            <mxPoint as="offset" />
          </mxGeometry>
        </mxCell>
        <mxCell id="PtrqWuawoQSoD1VGYV8C-37" value="" style="endArrow=classic;html=1;rounded=0;exitX=0.75;exitY=0;exitDx=0;exitDy=0;entryX=0.75;entryY=1;entryDx=0;entryDy=0;" parent="1" source="PtrqWuawoQSoD1VGYV8C-23" target="PtrqWuawoQSoD1VGYV8C-21" edge="1">
          <mxGeometry width="50" height="50" relative="1" as="geometry">
            <mxPoint x="1000" y="548.07" as="sourcePoint" />
            <mxPoint x="620" y="208.07" as="targetPoint" />
          </mxGeometry>
        </mxCell>
        <mxCell id="PtrqWuawoQSoD1VGYV8C-38" value="2" style="edgeLabel;html=1;align=center;verticalAlign=middle;resizable=0;points=[];" parent="PtrqWuawoQSoD1VGYV8C-37" vertex="1" connectable="0">
          <mxGeometry x="0.0082" y="-1" relative="1" as="geometry">
            <mxPoint as="offset" />
          </mxGeometry>
        </mxCell>
        <mxCell id="PtrqWuawoQSoD1VGYV8C-39" value="" style="curved=1;endArrow=classic;html=1;rounded=0;entryX=0;entryY=0.5;entryDx=0;entryDy=0;exitX=-0.037;exitY=0.875;exitDx=0;exitDy=0;exitPerimeter=0;" parent="1" source="PtrqWuawoQSoD1VGYV8C-21" target="PtrqWuawoQSoD1VGYV8C-21" edge="1">
          <mxGeometry width="50" height="50" relative="1" as="geometry">
            <mxPoint x="720" y="450" as="sourcePoint" />
            <mxPoint x="770" y="400" as="targetPoint" />
            <Array as="points">
              <mxPoint x="450" y="200" />
              <mxPoint x="510" y="160" />
            </Array>
          </mxGeometry>
        </mxCell>
        <mxCell id="PtrqWuawoQSoD1VGYV8C-40" value="3, 4." style="edgeLabel;html=1;align=center;verticalAlign=middle;resizable=0;points=[];" parent="PtrqWuawoQSoD1VGYV8C-39" vertex="1" connectable="0">
          <mxGeometry x="0.0462" y="-1" relative="1" as="geometry">
            <mxPoint as="offset" />
          </mxGeometry>
        </mxCell>
        <mxCell id="PtrqWuawoQSoD1VGYV8C-41" value="I. All processes are alive and A is the current leader" style="text;html=1;strokeColor=none;fillColor=none;align=center;verticalAlign=middle;whiteSpace=wrap;rounded=0;fontStyle=1" parent="1" vertex="1">
          <mxGeometry x="140" y="30" width="170" height="30" as="geometry" />
        </mxCell>
        <mxCell id="PtrqWuawoQSoD1VGYV8C-42" value="II. One process has crashed and is neither alive nor suspected by A. A is the current leader" style="text;html=1;strokeColor=none;fillColor=none;align=center;verticalAlign=middle;whiteSpace=wrap;rounded=0;fontStyle=1" parent="1" vertex="1">
          <mxGeometry x="551" y="30" width="170" height="30" as="geometry" />
        </mxCell>
        <mxCell id="PtrqWuawoQSoD1VGYV8C-43" value="C" style="whiteSpace=wrap;html=1;aspect=fixed;fillColor=#6d8764;strokeColor=#3A5431;fontColor=#ffffff;" parent="1" vertex="1">
          <mxGeometry x="314" y="520" width="80" height="80" as="geometry" />
        </mxCell>
        <mxCell id="PtrqWuawoQSoD1VGYV8C-44" value="B" style="whiteSpace=wrap;html=1;aspect=fixed;fillColor=#bac8d3;strokeColor=#23445d;" parent="1" vertex="1">
          <mxGeometry x="484" y="520" width="80" height="80" as="geometry" />
        </mxCell>
        <mxCell id="PtrqWuawoQSoD1VGYV8C-45" value="D" style="whiteSpace=wrap;html=1;aspect=fixed;fillColor=#bac8d3;strokeColor=#23445d;" parent="1" vertex="1">
          <mxGeometry x="314" y="690" width="80" height="80" as="geometry" />
        </mxCell>
        <mxCell id="PtrqWuawoQSoD1VGYV8C-46" value="A" style="whiteSpace=wrap;html=1;aspect=fixed;fillColor=#F8D668;strokeColor=#b85450;" parent="1" vertex="1">
          <mxGeometry x="484" y="690" width="80" height="80" as="geometry" />
        </mxCell>
        <mxCell id="PtrqWuawoQSoD1VGYV8C-47" value="timer = delay = Δ" style="text;html=1;strokeColor=none;fillColor=none;align=center;verticalAlign=middle;whiteSpace=wrap;rounded=0;" parent="1" vertex="1">
          <mxGeometry x="299" y="480" width="110" height="30" as="geometry" />
        </mxCell>
        <mxCell id="PtrqWuawoQSoD1VGYV8C-48" value="" style="endArrow=classic;html=1;rounded=0;exitX=1;exitY=0.5;exitDx=0;exitDy=0;entryX=0;entryY=0.5;entryDx=0;entryDy=0;" parent="1" source="PtrqWuawoQSoD1VGYV8C-43" target="PtrqWuawoQSoD1VGYV8C-44" edge="1">
          <mxGeometry width="50" height="50" relative="1" as="geometry">
            <mxPoint x="554" y="710" as="sourcePoint" />
            <mxPoint x="604" y="660" as="targetPoint" />
          </mxGeometry>
        </mxCell>
        <mxCell id="PtrqWuawoQSoD1VGYV8C-49" value="1" style="edgeLabel;html=1;align=center;verticalAlign=middle;resizable=0;points=[];" parent="PtrqWuawoQSoD1VGYV8C-48" vertex="1" connectable="0">
          <mxGeometry x="-0.0111" y="4" relative="1" as="geometry">
            <mxPoint as="offset" />
          </mxGeometry>
        </mxCell>
        <mxCell id="PtrqWuawoQSoD1VGYV8C-50" value="" style="endArrow=classic;html=1;rounded=0;exitX=1;exitY=1;exitDx=0;exitDy=0;entryX=0;entryY=0;entryDx=0;entryDy=0;" parent="1" source="PtrqWuawoQSoD1VGYV8C-43" target="PtrqWuawoQSoD1VGYV8C-46" edge="1">
          <mxGeometry width="50" height="50" relative="1" as="geometry">
            <mxPoint x="554" y="710" as="sourcePoint" />
            <mxPoint x="604" y="660" as="targetPoint" />
          </mxGeometry>
        </mxCell>
        <mxCell id="PtrqWuawoQSoD1VGYV8C-51" value="1" style="edgeLabel;html=1;align=center;verticalAlign=middle;resizable=0;points=[];" parent="PtrqWuawoQSoD1VGYV8C-50" vertex="1" connectable="0">
          <mxGeometry x="-0.0031" y="-1" relative="1" as="geometry">
            <mxPoint as="offset" />
          </mxGeometry>
        </mxCell>
        <mxCell id="PtrqWuawoQSoD1VGYV8C-52" value="" style="endArrow=classic;html=1;rounded=0;exitX=0.5;exitY=1;exitDx=0;exitDy=0;entryX=0.5;entryY=0;entryDx=0;entryDy=0;" parent="1" source="PtrqWuawoQSoD1VGYV8C-43" target="PtrqWuawoQSoD1VGYV8C-45" edge="1">
          <mxGeometry width="50" height="50" relative="1" as="geometry">
            <mxPoint x="554" y="710" as="sourcePoint" />
            <mxPoint x="604" y="660" as="targetPoint" />
          </mxGeometry>
        </mxCell>
        <mxCell id="PtrqWuawoQSoD1VGYV8C-53" value="1" style="edgeLabel;html=1;align=center;verticalAlign=middle;resizable=0;points=[];" parent="PtrqWuawoQSoD1VGYV8C-52" vertex="1" connectable="0">
          <mxGeometry x="0.0063" y="-1" relative="1" as="geometry">
            <mxPoint as="offset" />
          </mxGeometry>
        </mxCell>
        <mxCell id="PtrqWuawoQSoD1VGYV8C-54" value="" style="endArrow=classic;html=1;rounded=0;exitX=0;exitY=0.75;exitDx=0;exitDy=0;entryX=1;entryY=0.75;entryDx=0;entryDy=0;" parent="1" source="PtrqWuawoQSoD1VGYV8C-44" target="PtrqWuawoQSoD1VGYV8C-43" edge="1">
          <mxGeometry width="50" height="50" relative="1" as="geometry">
            <mxPoint x="784" y="890" as="sourcePoint" />
            <mxPoint x="404" y="550" as="targetPoint" />
          </mxGeometry>
        </mxCell>
        <mxCell id="PtrqWuawoQSoD1VGYV8C-55" value="2" style="edgeLabel;html=1;align=center;verticalAlign=middle;resizable=0;points=[];" parent="PtrqWuawoQSoD1VGYV8C-54" vertex="1" connectable="0">
          <mxGeometry x="0.0082" y="-1" relative="1" as="geometry">
            <mxPoint as="offset" />
          </mxGeometry>
        </mxCell>
        <mxCell id="PtrqWuawoQSoD1VGYV8C-56" value="" style="endArrow=classic;html=1;rounded=0;exitX=0.75;exitY=0;exitDx=0;exitDy=0;entryX=0.75;entryY=1;entryDx=0;entryDy=0;" parent="1" source="PtrqWuawoQSoD1VGYV8C-45" target="PtrqWuawoQSoD1VGYV8C-43" edge="1">
          <mxGeometry width="50" height="50" relative="1" as="geometry">
            <mxPoint x="794" y="900" as="sourcePoint" />
            <mxPoint x="414" y="560" as="targetPoint" />
          </mxGeometry>
        </mxCell>
        <mxCell id="PtrqWuawoQSoD1VGYV8C-57" value="2" style="edgeLabel;html=1;align=center;verticalAlign=middle;resizable=0;points=[];" parent="PtrqWuawoQSoD1VGYV8C-56" vertex="1" connectable="0">
          <mxGeometry x="0.0082" y="-1" relative="1" as="geometry">
            <mxPoint as="offset" />
          </mxGeometry>
        </mxCell>
        <mxCell id="PtrqWuawoQSoD1VGYV8C-58" value="" style="curved=1;endArrow=classic;html=1;rounded=0;entryX=0;entryY=0.5;entryDx=0;entryDy=0;exitX=-0.037;exitY=0.875;exitDx=0;exitDy=0;exitPerimeter=0;" parent="1" source="PtrqWuawoQSoD1VGYV8C-43" target="PtrqWuawoQSoD1VGYV8C-43" edge="1">
          <mxGeometry width="50" height="50" relative="1" as="geometry">
            <mxPoint x="514" y="770" as="sourcePoint" />
            <mxPoint x="564" y="720" as="targetPoint" />
            <Array as="points">
              <mxPoint x="244" y="520" />
              <mxPoint x="264" y="480" />
              <mxPoint x="304" y="480" />
            </Array>
          </mxGeometry>
        </mxCell>
        <mxCell id="PtrqWuawoQSoD1VGYV8C-59" value="3, 4, 5." style="edgeLabel;html=1;align=center;verticalAlign=middle;resizable=0;points=[];" parent="PtrqWuawoQSoD1VGYV8C-58" vertex="1" connectable="0">
          <mxGeometry x="0.0462" y="-1" relative="1" as="geometry">
            <mxPoint as="offset" />
          </mxGeometry>
        </mxCell>
        <mxCell id="PtrqWuawoQSoD1VGYV8C-60" value="III. C is the current leader. A has crashed, but recovered and now becomes the leader again (rank(A) &amp;lt; rank(C))" style="text;html=1;strokeColor=none;fillColor=none;align=center;verticalAlign=middle;whiteSpace=wrap;rounded=0;fontStyle=1" parent="1" vertex="1">
          <mxGeometry x="340" y="440" width="170" height="30" as="geometry" />
        </mxCell>
        <mxCell id="PtrqWuawoQSoD1VGYV8C-61" value="" style="endArrow=classic;html=1;rounded=0;exitX=0.25;exitY=0;exitDx=0;exitDy=0;entryX=1;entryY=0.75;entryDx=0;entryDy=0;" parent="1" source="PtrqWuawoQSoD1VGYV8C-46" target="PtrqWuawoQSoD1VGYV8C-43" edge="1">
          <mxGeometry width="50" height="50" relative="1" as="geometry">
            <mxPoint x="289" y="230" as="sourcePoint" />
            <mxPoint x="179" y="120" as="targetPoint" />
          </mxGeometry>
        </mxCell>
        <mxCell id="PtrqWuawoQSoD1VGYV8C-62" value="2" style="edgeLabel;html=1;align=center;verticalAlign=middle;resizable=0;points=[];" parent="PtrqWuawoQSoD1VGYV8C-61" vertex="1" connectable="0">
          <mxGeometry x="0.0082" y="-1" relative="1" as="geometry">
            <mxPoint as="offset" />
          </mxGeometry>
        </mxCell>
        <mxCell id="PtrqWuawoQSoD1VGYV8C-63" value="&lt;div align=&quot;left&quot;&gt;&lt;ol&gt;&lt;li&gt;Send HeartbeatRequest message&lt;/li&gt;&lt;li&gt;Send HeartbeatReply message&lt;/li&gt;&lt;li&gt;Deliver HeartbeatReply messages, add processes to the alive list&lt;/li&gt;&lt;li&gt;Remove A from suspected list and trigger Restore event&lt;/li&gt;&lt;li&gt;The current leader C has a lexicographic order greater than A, so its rank is weaker. the Trust event is triggered and A becomes the leader&lt;br&gt;&lt;/li&gt;&lt;/ol&gt;&lt;/div&gt;" style="text;html=1;strokeColor=none;fillColor=none;align=left;verticalAlign=middle;whiteSpace=wrap;rounded=0;" parent="1" vertex="1">
          <mxGeometry x="230" y="770" width="390" height="110" as="geometry" />
        </mxCell>
        <mxCell id="PtrqWuawoQSoD1VGYV8C-65" value="maxrank(X) = min(rank(&lt;b&gt;Π))&lt;/b&gt;" style="text;html=1;strokeColor=none;fillColor=none;align=center;verticalAlign=middle;whiteSpace=wrap;rounded=0;" parent="1" vertex="1">
          <mxGeometry x="334" y="40" width="196" height="30" as="geometry" />
        </mxCell>
        <mxCell id="PtrqWuawoQSoD1VGYV8C-67" value="" style="curved=1;endArrow=classic;html=1;rounded=0;entryX=0;entryY=0.5;entryDx=0;entryDy=0;exitX=-0.037;exitY=0.875;exitDx=0;exitDy=0;exitPerimeter=0;" parent="1" edge="1">
          <mxGeometry width="50" height="50" relative="1" as="geometry">
            <mxPoint x="311" y="750" as="sourcePoint" />
            <mxPoint x="314" y="720" as="targetPoint" />
            <Array as="points">
              <mxPoint x="244" y="680" />
              <mxPoint x="264" y="640" />
              <mxPoint x="304" y="640" />
            </Array>
          </mxGeometry>
        </mxCell>
        <mxCell id="PtrqWuawoQSoD1VGYV8C-68" value="5." style="edgeLabel;html=1;align=center;verticalAlign=middle;resizable=0;points=[];" parent="PtrqWuawoQSoD1VGYV8C-67" vertex="1" connectable="0">
          <mxGeometry x="0.0462" y="-1" relative="1" as="geometry">
            <mxPoint as="offset" />
          </mxGeometry>
        </mxCell>
        <mxCell id="PtrqWuawoQSoD1VGYV8C-69" value="" style="curved=1;endArrow=classic;html=1;rounded=0;entryX=0;entryY=0.5;entryDx=0;entryDy=0;exitX=-0.037;exitY=0.875;exitDx=0;exitDy=0;exitPerimeter=0;" parent="1" edge="1">
          <mxGeometry width="50" height="50" relative="1" as="geometry">
            <mxPoint x="567" y="760" as="sourcePoint" />
            <mxPoint x="564" y="730" as="targetPoint" />
            <Array as="points">
              <mxPoint x="634" y="690" />
              <mxPoint x="614" y="650" />
              <mxPoint x="574" y="650" />
            </Array>
          </mxGeometry>
        </mxCell>
        <mxCell id="PtrqWuawoQSoD1VGYV8C-70" value="5." style="edgeLabel;html=1;align=center;verticalAlign=middle;resizable=0;points=[];" parent="PtrqWuawoQSoD1VGYV8C-69" vertex="1" connectable="0">
          <mxGeometry x="0.0462" y="-1" relative="1" as="geometry">
            <mxPoint as="offset" />
          </mxGeometry>
        </mxCell>
        <mxCell id="PtrqWuawoQSoD1VGYV8C-71" value="" style="curved=1;endArrow=classic;html=1;rounded=0;entryX=0;entryY=0.5;entryDx=0;entryDy=0;exitX=-0.037;exitY=0.875;exitDx=0;exitDy=0;exitPerimeter=0;" parent="1" edge="1">
          <mxGeometry width="50" height="50" relative="1" as="geometry">
            <mxPoint x="567" y="590" as="sourcePoint" />
            <mxPoint x="564" y="560" as="targetPoint" />
            <Array as="points">
              <mxPoint x="634" y="520" />
              <mxPoint x="614" y="480" />
              <mxPoint x="574" y="480" />
            </Array>
          </mxGeometry>
        </mxCell>
        <mxCell id="PtrqWuawoQSoD1VGYV8C-72" value="5." style="edgeLabel;html=1;align=center;verticalAlign=middle;resizable=0;points=[];" parent="PtrqWuawoQSoD1VGYV8C-71" vertex="1" connectable="0">
          <mxGeometry x="0.0462" y="-1" relative="1" as="geometry">
            <mxPoint as="offset" />
          </mxGeometry>
        </mxCell>
      </root>
    </mxGraphModel>
  </diagram>
</mxfile>
